<svg xmlns="http://www.w3.org/2000/svg" version="1.1" xmlns:xlink="http://www.w3.org/1999/xlink" xmlns:svgjs="http://svgjs.dev/svgjs" width="2000" height="1106" viewBox="0 0 2000 1106"><g transform="matrix(1,0,0,1,-1.2121212121212466,0.7816350392760114)"><svg viewBox="0 0 396 219" data-background-color="#ffffff" preserveAspectRatio="xMidYMid meet" height="1106" width="2000" xmlns="http://www.w3.org/2000/svg" xmlns:xlink="http://www.w3.org/1999/xlink"><g id="tight-bounds" transform="matrix(1,0,0,1,0.2400000000000091,-0.15477221844615485)"><svg viewBox="0 0 395.52 219.3095444368923" height="219.3095444368923" width="395.52"><g><svg viewBox="0 0 397.4975999999999 220.40609215907674" height="219.3095444368923" width="395.52"><g><rect width="397.4975999999999" height="6.750747498319221" x="0" y="121.12549908599819" fill="#7367f0" opacity="1" stroke-width="0" stroke="transparent" fill-opacity="1" class="rect-qz-0" data-fill-palette-color="primary" rx="1%" id="qz-0" data-palette-color="#7367f0"></rect></g><g transform="matrix(1,0,0,1,0.9887999999999693,145.54836045426302)"><svg viewBox="0 0 395.52 74.85773170481372" height="74.85773170481372" width="395.52"><g id="textblocktransform"><svg viewBox="0 0 395.52 74.85773170481372" height="74.85773170481372" width="395.52" id="textblock"><g><svg viewBox="0 0 395.52 74.85773170481372" height="74.85773170481372" width="395.52"><g transform="matrix(1,0,0,1,0,0)"><svg width="395.52" viewBox="0.49 -35.01 237.82999999999998 45.019999999999996" height="74.85773170481372" data-palette-color="#7367f0"><path d="M14.36-32.15L11.6-32.15Q10.84-32.15 10.19-31.87 9.55-31.59 9.06-31.1 8.57-30.62 8.29-29.96 8.01-29.3 8.01-28.54L8.01-28.54 8.01-25 13.84-25 13.84-22.14 8.01-22.14 8.01 0 5 0 5-22.14 0.49-22.14 0.49-25 5-25 5-28.39Q5-29.76 5.52-30.97 6.03-32.18 6.93-33.08 7.84-33.98 9.03-34.5 10.23-35.01 11.6-35.01L11.6-35.01 14.36-35.01 14.36-32.15ZM34.06-6.86L34.06-6.86Q34.06-5.35 33.48-4 32.91-2.66 31.91-1.66 30.91-0.66 29.56-0.09 28.22 0.49 26.71 0.49L26.71 0.49 24.7 0.49Q23.19 0.49 21.85-0.09 20.51-0.66 19.5-1.66 18.5-2.66 17.93-4 17.36-5.35 17.36-6.86L17.36-6.86 17.36-18.14Q17.36-19.65 17.93-21 18.5-22.34 19.5-23.34 20.51-24.34 21.85-24.91 23.19-25.49 24.7-25.49L24.7-25.49 26.71-25.49Q28.22-25.49 29.56-24.91 30.91-24.34 31.91-23.34 32.91-22.34 33.48-21 34.06-19.65 34.06-18.14L34.06-18.14 34.06-6.86ZM31.05-6.69L31.05-18.31Q31.05-19.21 30.71-20.01 30.37-20.8 29.78-21.39 29.2-21.97 28.4-22.31 27.61-22.66 26.71-22.66L26.71-22.66 24.7-22.66Q23.8-22.66 23.01-22.31 22.21-21.97 21.63-21.39 21.04-20.8 20.7-20.01 20.36-19.21 20.36-18.31L20.36-18.31 20.36-6.69Q20.36-5.79 20.7-4.99 21.04-4.2 21.63-3.61 22.21-3.03 23.01-2.69 23.8-2.34 24.7-2.34L24.7-2.34 26.71-2.34Q27.61-2.34 28.4-2.69 29.2-3.03 29.78-3.61 30.37-4.2 30.71-4.99 31.05-5.79 31.05-6.69L31.05-6.69ZM56.76-6.86L56.76-6.86Q56.76-5.35 56.18-4 55.61-2.66 54.61-1.66 53.61-0.66 52.27-0.09 50.92 0.49 49.41 0.49L49.41 0.49 47.41 0.49Q45.89 0.49 44.55-0.09 43.21-0.66 42.21-1.66 41.21-2.66 40.63-4 40.06-5.35 40.06-6.86L40.06-6.86 40.06-18.14Q40.06-19.65 40.63-21 41.21-22.34 42.21-23.34 43.21-24.34 44.55-24.91 45.89-25.49 47.41-25.49L47.41-25.49 49.41-25.49Q50.92-25.49 52.27-24.91 53.61-24.34 54.61-23.34 55.61-22.34 56.18-21 56.76-19.65 56.76-18.14L56.76-18.14 56.76-6.86ZM53.75-6.69L53.75-18.31Q53.75-19.21 53.41-20.01 53.07-20.8 52.49-21.39 51.9-21.97 51.11-22.31 50.31-22.66 49.41-22.66L49.41-22.66 47.41-22.66Q46.5-22.66 45.71-22.31 44.92-21.97 44.33-21.39 43.75-20.8 43.4-20.01 43.06-19.21 43.06-18.31L43.06-18.31 43.06-6.69Q43.06-5.79 43.4-4.99 43.75-4.2 44.33-3.61 44.92-3.03 45.71-2.69 46.5-2.34 47.41-2.34L47.41-2.34 49.41-2.34Q50.31-2.34 51.11-2.69 51.9-3.03 52.49-3.61 53.07-4.2 53.41-4.99 53.75-5.79 53.75-6.69L53.75-6.69ZM79.46 0L78.46 0 76.8-2.54Q75.77-1.15 74.24-0.33 72.7 0.49 70.87 0.49L70.87 0.49 70.11 0.49Q68.6 0.49 67.25-0.09 65.91-0.66 64.91-1.66 63.91-2.66 63.33-4 62.76-5.35 62.76-6.86L62.76-6.86 62.76-18.14Q62.76-19.65 63.33-21 63.91-22.34 64.91-23.34 65.91-24.34 67.25-24.91 68.6-25.49 70.11-25.49L70.11-25.49 70.87-25.49Q72.55-25.49 73.99-24.8 75.43-24.12 76.46-22.9L76.46-22.9 76.46-35.01 79.46-35.01 79.46 0ZM76.46-6.69L76.46-18.31Q76.46-19.21 76.12-20.01 75.77-20.8 75.19-21.39 74.6-21.97 73.81-22.31 73.01-22.66 72.11-22.66L72.11-22.66 70.11-22.66Q69.21-22.66 68.41-22.31 67.62-21.97 67.03-21.39 66.45-20.8 66.11-20.01 65.76-19.21 65.76-18.31L65.76-18.31 65.76-6.69Q65.76-5.79 66.11-4.99 66.45-4.2 67.03-3.61 67.62-3.03 68.41-2.69 69.21-2.34 70.11-2.34L70.11-2.34 72.11-2.34Q73.01-2.34 73.81-2.69 74.6-3.03 75.19-3.61 75.77-4.2 76.12-4.99 76.46-5.79 76.46-6.69L76.46-6.69ZM113.66 0L112.66 0 111-2.54Q109.97-1.15 108.43-0.33 106.9 0.49 105.07 0.49L105.07 0.49 104.31 0.49Q102.8 0.49 101.45-0.09 100.11-0.66 99.11-1.66 98.11-2.66 97.53-4 96.96-5.35 96.96-6.86L96.96-6.86 96.96-18.14Q96.96-19.65 97.53-21 98.11-22.34 99.11-23.34 100.11-24.34 101.45-24.91 102.8-25.49 104.31-25.49L104.31-25.49 105.07-25.49Q106.75-25.49 108.19-24.8 109.63-24.12 110.66-22.9L110.66-22.9 110.66-35.01 113.66-35.01 113.66 0ZM110.66-6.69L110.66-18.31Q110.66-19.21 110.31-20.01 109.97-20.8 109.39-21.39 108.8-21.97 108.01-22.31 107.21-22.66 106.31-22.66L106.31-22.66 104.31-22.66Q103.41-22.66 102.61-22.31 101.82-21.97 101.23-21.39 100.65-20.8 100.3-20.01 99.96-19.21 99.96-18.31L99.96-18.31 99.96-6.69Q99.96-5.79 100.3-4.99 100.65-4.2 101.23-3.61 101.82-3.03 102.61-2.69 103.41-2.34 104.31-2.34L104.31-2.34 106.31-2.34Q107.21-2.34 108.01-2.69 108.8-3.03 109.39-3.61 109.97-4.2 110.31-4.99 110.66-5.79 110.66-6.69L110.66-6.69ZM136.36-6.86L136.36-6.86Q136.36-5.35 135.79-4 135.21-2.66 134.21-1.66 133.21-0.66 131.87-0.09 130.53 0.49 129.01 0.49L129.01 0.49 127.01 0.49Q125.5 0.49 124.15-0.09 122.81-0.66 121.81-1.66 120.81-2.66 120.24-4 119.66-5.35 119.66-6.86L119.66-6.86 119.66-18.14Q119.66-19.65 120.24-21 120.81-22.34 121.81-23.34 122.81-24.34 124.15-24.91 125.5-25.49 127.01-25.49L127.01-25.49 129.01-25.49Q130.53-25.49 131.87-24.91 133.21-24.34 134.21-23.34 135.21-22.34 135.79-21 136.36-19.65 136.36-18.14L136.36-18.14 136.36-12.26 122.67-12.26 122.67-6.69Q122.67-5.79 123.01-4.99 123.35-4.2 123.94-3.61 124.52-3.03 125.31-2.69 126.11-2.34 127.01-2.34L127.01-2.34 129.01-2.34Q129.92-2.34 130.71-2.69 131.5-3.03 132.09-3.61 132.68-4.2 133.02-4.99 133.36-5.79 133.36-6.69L133.36-6.69 133.36-8.35 136.36-7.86 136.36-6.86ZM133.36-14.6L133.36-18.31Q133.36-19.21 133.02-20.01 132.68-20.8 132.09-21.39 131.5-21.97 130.71-22.31 129.92-22.66 129.01-22.66L129.01-22.66 127.01-22.66Q126.11-22.66 125.31-22.31 124.52-21.97 123.94-21.39 123.35-20.8 123.01-20.01 122.67-19.21 122.67-18.31L122.67-18.31 122.67-14.6 133.36-14.6ZM146.37 0L143.37 0 143.37-35.01 146.37-35.01 146.37 0ZM157.62-31.01L154.13-31.01 154.13-35.01 157.62-35.01 157.62-31.01ZM157.38 0L154.37 0 154.37-25 157.38-25 157.38 0ZM181.08-25L172.22 0 170.73 0 161.87-25 164.87-25 171.39-6.05 171.49-4.76 171.58-6.05 178.08-25 181.08-25ZM201.27-6.86L201.27-6.86Q201.27-5.35 200.7-4 200.12-2.66 199.12-1.66 198.12-0.66 196.78-0.09 195.43 0.49 193.92 0.49L193.92 0.49 191.92 0.49Q190.4 0.49 189.06-0.09 187.72-0.66 186.72-1.66 185.72-2.66 185.14-4 184.57-5.35 184.57-6.86L184.57-6.86 184.57-18.14Q184.57-19.65 185.14-21 185.72-22.34 186.72-23.34 187.72-24.34 189.06-24.91 190.4-25.49 191.92-25.49L191.92-25.49 193.92-25.49Q195.43-25.49 196.78-24.91 198.12-24.34 199.12-23.34 200.12-22.34 200.7-21 201.27-19.65 201.27-18.14L201.27-18.14 201.27-12.26 187.57-12.26 187.57-6.69Q187.57-5.79 187.91-4.99 188.26-4.2 188.84-3.61 189.43-3.03 190.22-2.69 191.02-2.34 191.92-2.34L191.92-2.34 193.92-2.34Q194.82-2.34 195.62-2.69 196.41-3.03 197-3.61 197.58-4.2 197.92-4.99 198.27-5.79 198.27-6.69L198.27-6.69 198.27-8.35 201.27-7.86 201.27-6.86ZM198.27-14.6L198.27-18.31Q198.27-19.21 197.92-20.01 197.58-20.8 197-21.39 196.41-21.97 195.62-22.31 194.82-22.66 193.92-22.66L193.92-22.66 191.92-22.66Q191.02-22.66 190.22-22.31 189.43-21.97 188.84-21.39 188.26-20.8 187.91-20.01 187.57-19.21 187.57-18.31L187.57-18.31 187.57-14.6 198.27-14.6ZM217.62-22.14L214.62-22.14Q213.72-22.14 212.92-21.8 212.13-21.46 211.54-20.87 210.96-20.29 210.62-19.49 210.28-18.7 210.28-17.8L210.28-17.8 210.28 0 207.27 0 207.27-25 208.27-25 209.91-22.46Q210.93-23.85 212.48-24.67 214.04-25.49 215.87-25.49L215.87-25.49 217.62-25.49 217.62-22.14ZM238.32-25L225.68 10.01 222.77 10.01 227.22-2.15 219.11-25 222.11-25 228.63-6.05 228.73-4.76 228.83-6.05 235.32-25 238.32-25Z" opacity="1" transform="matrix(1,0,0,1,0,0)" fill="#7367f0" class="wordmark-text-0" data-fill-palette-color="primary" id="text-0"></path></svg></g></svg></g></svg></g></svg></g><g transform="matrix(1,0,0,1,113.7464965647884,0)"><svg viewBox="0 0 170.00460687042312 103.45338521605258" height="103.45338521605258" width="170.00460687042312"><g><svg xmlns="http://www.w3.org/2000/svg" xmlns:xlink="http://www.w3.org/1999/xlink" version="1.1" x="0" y="0" viewBox="12.615000000000002 27.25 74.77000000000001 45.5" enable-background="new 0 0 100 100" xml:space="preserve" height="103.45338521605258" width="170.00460687042312" class="icon-icon-0" data-fill-palette-color="accent" id="icon-0"><g fill="#7367f0" data-fill-palette-color="accent"><path fill="#7367f0" d="M35.551 64.875c0 4.35-3.531 7.875-7.889 7.875-4.356 0-7.889-3.525-7.889-7.875S23.306 57 27.662 57C32.02 57 35.551 60.525 35.551 64.875zM87.385 53.58v8.46c0 1.56-1.271 2.83-2.83 2.83h-1.3c0-5.65-4.59-10.23-10.24-10.23s-10.24 4.58-10.24 10.23H37.915c0-5.65-4.59-10.23-10.25-10.23-5.67 0-10.26 4.58-10.26 10.23h-1.95c-1.561 0-2.84-1.271-2.84-2.83V50.58h36.149V28.67c0-0.72 0.54-1.32 1.24-1.4 0.06-0.02 0.12-0.02 0.18-0.02h12.561c1.56 0 3.439 1.12 4.18 2.49l7.51 13.91c0.74 1.37 2.53 2.96 3.98 3.541l6.34 2.52C86.205 50.28 87.385 52.03 87.385 53.58zM70.495 46.02l-7.03-12.78c-0.38-0.68-1.32-1.24-2.101-1.24h-6.6c-0.78 0-1.42 0.64-1.42 1.42v12.42c0 0.78 0.64 1.42 1.42 1.42h15C70.545 47.26 70.875 46.7 70.495 46.02zM50.005 27.25v0.02c0.06-0.02 0.12-0.02 0.18-0.02H50.005zM73.015 57c-4.35 0-7.875 3.525-7.875 7.875s3.525 7.875 7.875 7.875 7.875-3.525 7.875-7.875S77.364 57 73.015 57zM16.935 32.57V47.19l12.79-7.3L16.935 32.57zM31.745 41.05l-12.91 7.37h25.77L31.745 41.05zM18.945 31.42l12.79 7.33 12.85-7.33H18.945zM33.755 39.9l12.84 7.36V32.58L33.755 39.9z" data-fill-palette-color="accent"></path></g></svg></g></svg></g><g></g></svg></g><defs></defs></svg><rect width="395.52" height="219.3095444368923" fill="none" stroke="none" visibility="hidden"></rect></g></svg></g></svg>